<?xml version="1.0" encoding="utf-8"?>
<!-- Generator: Adobe Illustrator 28.1.0, SVG Export Plug-In . SVG Version: 6.00 Build 0)  -->
<svg version="1.1" id="Layer_1" xmlns="http://www.w3.org/2000/svg" xmlns:xlink="http://www.w3.org/1999/xlink" x="0px" y="0px"
	 width="100px" height="561px" viewBox="0 0 100 561" style="enable-background:new 0 0 100 561;" xml:space="preserve">
<style type="text/css">
	.st0{fill:#A54646;}
	.st1{fill:#BCACA4;}
</style>
<g>
	<rect x="8" y="7" class="st0" width="5" height="5"/>
</g>
<g>
	<rect x="40" y="7" class="st0" width="5" height="5"/>
</g>
<g>
	<rect x="8" y="39" class="st0" width="5" height="5"/>
</g>
<g>
	<rect x="40" y="39" class="st0" width="5" height="5"/>
</g>
<g>
	<g>
		<polygon class="st0" points="11.4,9 10.5,9 11,9 11,9 10.5,9 11.4,9 13,9 13,9 		"/>
	</g>
	<g>
		<polygon class="st0" points="10.5,31 11,31 11,33 10.5,33 11.4,33 13,33 13,31 11.4,31 		"/>
	</g>
	<g>
		<polygon class="st0" points="10.5,27 11,27 11,29 10.5,29 11.4,29 13,29 13,27 11.4,27 		"/>
	</g>
	<g>
		<polygon class="st0" points="10.5,36 11,36 11,38 10.5,38 11.4,38 13,38 13,36 11.4,36 		"/>
	</g>
	<g>
		<polygon class="st0" points="10.5,12 11,12 11,14 10.5,14 11.4,14 13,14 13,12 11.4,12 		"/>
	</g>
	<g>
		<polygon class="st0" points="10.5,17 11,17 11,19 10.5,19 11.4,19 13,19 13,17 11.4,17 		"/>
	</g>
	<g>
		<polygon class="st0" points="10.5,22 11,22 11,24 10.5,24 11.4,24 13,24 13,22 11.4,22 		"/>
	</g>
</g>
<g>
	<g>
		<polygon class="st0" points="42.1,9 41.2,9 41,9 41,9 41.2,9 42.1,9 43,9 43,9 		"/>
	</g>
	<g>
		<polygon class="st0" points="41.2,31 41,31 41,33 41.2,33 42.1,33 43,33 43,31 42.1,31 		"/>
	</g>
	<g>
		<polygon class="st0" points="41.2,27 41,27 41,29 41.2,29 42.1,29 43,29 43,27 42.1,27 		"/>
	</g>
	<g>
		<polygon class="st0" points="41.2,36 41,36 41,38 41.2,38 42.1,38 43,38 43,36 42.1,36 		"/>
	</g>
	<g>
		<polygon class="st0" points="41.2,12 41,12 41,14 41.2,14 42.1,14 43,14 43,12 42.1,12 		"/>
	</g>
	<g>
		<polygon class="st0" points="41.2,17 41,17 41,19 41.2,19 42.1,19 43,19 43,17 42.1,17 		"/>
	</g>
	<g>
		<polygon class="st0" points="41.2,22 41,22 41,24 41.2,24 42.1,24 43,24 43,22 42.1,22 		"/>
	</g>
</g>
<g>
	<g>
		<polygon class="st0" points="11,9.6 11,10.6 11,11 11,11 11,10.6 11,9.6 11,9 11,9 		"/>
	</g>
	<g>
		<polygon class="st0" points="33,10.6 33,11 35,11 35,10.6 35,9.6 35,9 33,9 33,9.6 		"/>
	</g>
	<g>
		<polygon class="st0" points="28,10.6 28,11 30,11 30,10.6 30,9.6 30,9 28,9 28,9.6 		"/>
	</g>
	<g>
		<polygon class="st0" points="38,10.6 38,11 40,11 40,10.6 40,9.6 40,9 38,9 38,9.6 		"/>
	</g>
	<g>
		<polygon class="st0" points="14,10.6 14,11 16,11 16,10.6 16,9.6 16,9 14,9 14,9.6 		"/>
	</g>
	<g>
		<polygon class="st0" points="18,10.6 18,11 20,11 20,10.6 20,9.6 20,9 18,9 18,9.6 		"/>
	</g>
	<g>
		<polygon class="st0" points="23,10.6 23,11 25,11 25,10.6 25,9.6 25,9 23,9 23,9.6 		"/>
	</g>
</g>
<g>
	<g>
		<polygon class="st0" points="11,41.5 11,42.4 11,42 11,42 11,42.4 11,41.5 11,40 11,40 		"/>
	</g>
	<g>
		<polygon class="st0" points="33,42.4 33,42 35,42 35,42.4 35,41.5 35,40 33,40 33,41.5 		"/>
	</g>
	<g>
		<polygon class="st0" points="28,42.4 28,42 30,42 30,42.4 30,41.5 30,40 28,40 28,41.5 		"/>
	</g>
	<g>
		<polygon class="st0" points="38,42.4 38,42 40,42 40,42.4 40,41.5 40,40 38,40 38,41.5 		"/>
	</g>
	<g>
		<polygon class="st0" points="14,42.4 14,42 16,42 16,42.4 16,41.5 16,40 14,40 14,41.5 		"/>
	</g>
	<g>
		<polygon class="st0" points="18,42.4 18,42 20,42 20,42.4 20,41.5 20,40 18,40 18,41.5 		"/>
	</g>
	<g>
		<polygon class="st0" points="23,42.4 23,42 25,42 25,42.4 25,41.5 25,40 23,40 23,41.5 		"/>
	</g>
</g>
<g>
	<path class="st0" d="M29.9,34.8l-7.3-7.3L19,31V18h13l-3.5,3.5l7.3,7.3L29.9,34.8z M22.5,24.6l7.3,7.3l3.1-3.1l-7.3-7.3l1.5-1.5H21
		v6.2L22.5,24.6z"/>
</g>
<g>
	<g>
		<polygon class="st0" points="22,108 10,108 10,75 29,75 29,77 12,77 12,106 22,106 		"/>
	</g>
	<g>
		<rect x="19" y="77" class="st0" width="2" height="12"/>
	</g>
	<g>
		<rect x="27" y="96" class="st0" width="2" height="12"/>
	</g>
	<g>
		<rect x="14" y="88" class="st0" width="11" height="2"/>
	</g>
	<g>
		<rect x="31" y="88" class="st0" width="11" height="2"/>
	</g>
	<g>
		<rect x="23" y="96" class="st0" width="11" height="2"/>
	</g>
	<g>
		<polygon class="st0" points="43,108 28,108 28,106 41,106 41,77 35,77 35,75 43,75 		"/>
	</g>
</g>
<g>
	<g>
		<polygon class="st0" points="22,307 10,307 10,274 29,274 29,276 12,276 12,305 22,305 		"/>
	</g>
	<g>
		<rect x="16" y="275" class="st0" width="2" height="4"/>
	</g>
	<g>
		<rect x="34" y="301" class="st0" width="2" height="4"/>
	</g>
	<g>
		<polygon class="st0" points="43,307 28,307 28,305 41,305 41,276 35,276 35,274 43,274 		"/>
	</g>
	<g>
		<g>
			<path class="st0" d="M23.4,298.5l-4.5-4.5l10.6-11c0.6-0.6,1.4-0.9,2.2-0.9c0.8,0,1.6,0.3,2.2,0.9l0.1,0.1c1.2,1.2,1.2,3.1,0,4.3
				L23.4,298.5z M21.7,294l1.6,1.6l9.3-9.5c0.4-0.4,0.4-1.1,0-1.5l-0.1-0.1c-0.2-0.2-0.5-0.3-0.8-0.3c-0.3,0-0.6,0.1-0.8,0.3
				L21.7,294z"/>
		</g>
		<g>
			<path class="st0" d="M19.3,298.2l3.8-0.4c0.4,0,0.5-0.5,0.3-0.8l-3-3.1c-0.2-0.3-0.7-0.1-0.8,0.2l-0.8,3.5
				C18.7,298,19,298.3,19.3,298.2z"/>
		</g>
		<g>
			
				<rect x="29.3" y="284.5" transform="matrix(0.7071 -0.7071 0.7071 0.7071 -193.8647 105.4355)" class="st0" width="2" height="4.4"/>
		</g>
	</g>
</g>
<g>
	<path class="st0" d="M32.1,176.4L8,163.4v-22.3l0.6-0.2c0.6-0.2,4.4-2.1,6.8-3.4l0.4-0.2L41,149.7v19.4L32.1,176.4z M10,162.2
		L31.9,174l7.1-5.9v-17.2l-23.1-11.4c-1.2,0.6-4.4,2.2-5.9,2.9V162.2z"/>
</g>
<g>
	<path class="st0" d="M40.8,170l-12.2-5.8c-0.4-0.2-0.6-0.5-0.6-0.9v-7.5l-11.1-5.6l-6.2,3.7l10.8,5.8c0.3,0.2,0.5,0.5,0.5,0.9v8.4
		h-2v-7.8l-11.8-6.4c-0.3-0.2-0.5-0.5-0.5-0.9c0-0.4,0.2-0.7,0.5-0.9l8.1-4.9c0.3-0.2,0.7-0.2,1,0l12.2,6.1c0.3,0.2,0.5,0.5,0.5,0.9
		v7.5l11.6,5.5L40.8,170z"/>
</g>
<g>
	<rect x="20.3" y="156.9" transform="matrix(0.8281 -0.5605 0.5605 0.8281 -84.2304 41.1348)" class="st0" width="9.3" height="2"/>
</g>
<g>
	<rect x="20.3" y="165.3" transform="matrix(0.8281 -0.5605 0.5605 0.8281 -88.8986 42.5674)" class="st0" width="9.3" height="2"/>
</g>
<g>
	<path class="st0" d="M38,161.3l-6-2.7v-8l6,2.7V161.3z M34,157.3l2,0.9v-3.6l-2-0.9V157.3z"/>
</g>
<g>
	<polygon class="st0" points="8.1,220.4 7,218.7 27.6,205 46.6,218.7 45.4,220.3 27.6,207.4 	"/>
</g>
<g>
	<rect x="27" y="206" class="st0" width="2" height="32"/>
</g>
<g>
	<rect x="9" y="230" class="st0" width="37" height="2"/>
</g>
<g>
	<rect x="10" y="217" class="st0" width="2" height="21"/>
</g>
<g>
	<rect x="42" y="217" class="st0" width="2" height="21"/>
</g>
<g>
	<g>
		<path class="st0" d="M40,352h-2v-7c0-2.2-1.8-4-4-4H20c-2.2,0-4,1.8-4,4v7h-2v-7c0-3.3,2.7-6,6-6H34c3.3,0,6,2.7,6,6V352z"/>
	</g>
	<g>
		<path class="st0" d="M30.1,370.3c-3.4,0-8.1,0-14.6,0c-2.3-0.2-3.2-1.9-3.4-2.9l0-0.2v-5.9c-2.1-0.8-3.5-2.8-3.6-5
			c-0.1-1.5,0.5-3,1.6-4.1c1.1-1.1,2.5-1.7,4-1.7c0,0,0,0,0,0c3.1,0,5.6,2.5,5.6,5.6c0,2.2,0,5.4,0,7h14.7c0-1.5,0-4.6,0-6.7
			c0-3.1,2.5-5.6,5.6-5.7c0,0,0,0,0,0c1.5,0,3,0.6,4,1.7c1.1,1.1,1.7,2.6,1.6,4.1c-0.1,2.3-1.5,4.2-3.6,5l0,5.6l0,0.2
			c-0.6,1.7-1.8,2.8-3.4,3l0-0.1C37.8,370.3,35.8,370.3,30.1,370.3z M14,367c0.1,0.3,0.5,1.1,1.6,1.3c8.5,0,21.5,0,22.7,0
			c0,0,0.1,0,0.1,0c0.3,0,1.2-0.1,1.7-1.5l0-6.8l0.8-0.2c1.6-0.4,2.8-1.8,2.8-3.4c0-1-0.3-2-1-2.7c-0.7-0.7-1.6-1.1-2.6-1.1
			c0,0,0,0,0,0c-2,0-3.6,1.6-3.6,3.6c0,8,0,8-0.3,8.4l-0.7-0.7l-0.3,0v1.1H18.2l-0.3-0.3c-0.3-0.4-0.3-0.4-0.3-8.7
			c0-2-1.6-3.6-3.6-3.6c0,0,0,0,0,0c-0.9,0-1.9,0.4-2.6,1.1c-0.7,0.7-1.1,1.7-1.1,2.7c0.1,1.6,1.2,3,2.8,3.4l0.8,0.2
			C14,359.8,14,367,14,367z"/>
	</g>
	<g>
		<polygon class="st0" points="19,375 15,375 15,369 17,369 17,373 17.5,373 18.8,368.8 20.7,369.4 		"/>
	</g>
	<g>
		<polygon class="st0" points="39,375 35,375 33.3,369.4 35.2,368.8 36.5,373 37,373 37,369 39,369 		"/>
	</g>
	<g>
		<rect x="19" y="358" class="st0" width="17" height="2"/>
	</g>
	<g>
		<path class="st0" d="M14.6,342.4l-2-0.1c0-2.5-2.2-2.8-2.6-2.8l-0.1-2c2.8-0.3,2.9-2.1,2.9-2.4l2-0.2c0.4,2.5,2.2,2.8,2.5,2.8
			l-0.1,2C14.9,339.7,14.6,342.1,14.6,342.4z M12.9,338.6c0.3,0.2,0.5,0.5,0.8,0.8c0.2-0.3,0.5-0.6,0.8-0.9
			c-0.2-0.2-0.5-0.5-0.7-0.8C13.6,338.1,13.2,338.3,12.9,338.6z"/>
	</g>
	<g>
		<path class="st0" d="M22.2,350.9l-2-0.1c0-4.3-3.9-4.6-4.3-4.6l-0.1-2c4.7-0.5,4.7-3.7,4.7-4l2-0.2c0.7,4.1,4,4.5,4,4.5l-0.1,2
			C22.6,346.4,22.2,350.7,22.2,350.9z M19.3,345.2c0.8,0.5,1.5,1.1,2,2c0.5-0.8,1.2-1.5,2-2.1c-0.7-0.5-1.3-1.1-1.8-2
			C21.1,343.9,20.4,344.7,19.3,345.2z"/>
	</g>
</g>
<g>
	<g>
		<path class="st0" d="M44.5,439.9c-0.6,0-1.2-0.2-1.8-0.5c0,0-2.2-1.3-1.9-2.4l0.1-0.3c0-0.6,0-2.2-0.1-3.5l2-0.1
			c0.1,2.3,0.1,3.4,0.1,4c0.3,0.3,0.9,0.8,1.5,0.9c0.2,0,0.6,0,1-0.4c0.3-0.3,0.4-0.7,0.4-1.2c0-3.2,0-8.4,0-8.4v-0.1l0-0.1
			c0-0.2,0.1-1.1-1.5-1.5l-11.5,0.1l-7.1-7.4c-0.2-0.2-0.6-0.4-1-0.3c-0.4,0-0.7,0.2-0.9,0.4l-0.1,0.1c0,0-0.4,0.6,0,1.5l9.2,9.5
			v8.2h-2v-7.3l-8.9-9.2c-1-1.7-0.4-3.2,0.1-3.8c0.1-0.1,0.1-0.1,0.1-0.2c0.6-0.7,1.4-1,2.3-1.1c0.9,0,1.8,0.3,2.5,0.9l6.5,6.8
			l10.9-0.1l0.1,0c1.3,0.3,2.2,1,2.7,1.8c0.5,0.9,0.4,1.7,0.4,2.1c0,0.8,0,5.4,0,8.4c0,1-0.4,1.9-1,2.5
			C46.1,439.5,45.3,439.9,44.5,439.9z M41.8,436.2C41.8,436.2,41.8,436.2,41.8,436.2L41.8,436.2z"/>
	</g>
	<g>
		<path class="st0" d="M38.5,424c-3,0-5.5-2.5-5.5-5.5s2.5-5.5,5.5-5.5s5.5,2.5,5.5,5.5S41.5,424,38.5,424z M38.5,415
			c-1.9,0-3.5,1.6-3.5,3.5s1.6,3.5,3.5,3.5s3.5-1.6,3.5-3.5S40.4,415,38.5,415z"/>
	</g>
	<g>
		<path class="st0" d="M14.5,415c-3.6,0-6.5-2.9-6.5-6.5s2.9-6.5,6.5-6.5s6.5,2.9,6.5,6.5S18.1,415,14.5,415z M14.5,404
			c-2.5,0-4.5,2-4.5,4.5s2,4.5,4.5,4.5s4.5-2,4.5-4.5S17,404,14.5,404z"/>
	</g>
	<g>
		<path class="st0" d="M22,433H10.8c-2.9-0.2-3.8-2.8-3.8-4.1v-9l0-0.1c0.4-2.2,1.9-3.7,4.5-4.3l0.1,0c0.4-0.2,1.5-0.2,6.2-0.1l0,2
			c-2.2-0.1-4.8-0.1-5.4,0c-0.1,0-0.2,0.1-0.4,0.1c-1.2,0.3-2.6,0.9-3,2.6v8.8c0,0.2,0.2,2.1,1.9,2.2h10.9c0.4-0.1,1.8-0.5,1.7-1.7
			c0-0.2-0.2-1.1-1.4-1.3H13v-2l9.4,0c2.3,0.3,3,2.2,3.1,3.1c0.3,2.5-2.1,3.6-3.4,3.9L22,433z"/>
	</g>
	<g>
		<path class="st0" d="M29,417h-2.5l0-1.9l-1.9,1.2l-2.6-2.7l1.3-1.6l0-0.1l-2.2-0.2v-3.6l2.2-0.1l0.1-0.2l-1-1.9l2.3-1.9l1.8,0.8
			l0.1,0l0.2-1.9l4,0.1l0,1.9c0,0,0.1,0,0.1,0c0.2-0.2,0.6-0.5,0.9-0.7l0.7-0.6l2.9,3l-1,1.5H36v3h-2v-1h-1.3l-0.9-2.1l0.9-1.2
			l-0.4-0.4c-0.9,0.7-1.5,1.1-2.1,0.5c-0.1-0.1-0.6-0.3-0.9-0.5l-0.5-0.3l0-1.2h-0.2l-0.1,1.2l-2,0.8l-1.5-0.7l0,0l0.8,1.5l-1.3,2.1
			l-0.7,0l0.9,0.1l1.1,2.3l-1,1.2l0.3,0.3l1.4-0.9l2.1,0.5l0,1.6H29V417z"/>
	</g>
	<g>
		<path class="st0" d="M28.9,413.5c-1.9,0-3.4-1.5-3.4-3.4s1.5-3.4,3.4-3.4c1.9,0,3.4,1.5,3.4,3.4h-2c0-0.8-0.6-1.4-1.4-1.4
			c-0.8,0-1.4,0.6-1.4,1.4s0.6,1.4,1.4,1.4V413.5z"/>
	</g>
</g>
<path class="st0" d="M28.6,487.7c0.1-0.2,0.1-0.5,0-0.8c-0.1-0.2-0.3-0.4-0.5-0.5c0-0.1-0.1-0.2-0.2-0.3l-7.2-7.2
	c-0.4-0.4-1-0.4-1.4,0s-0.4,1,0,1.4l5.9,5.9h-23c-0.6,0-1,0.4-1,1s0.4,1,1,1h23l-5.5,5.5c-0.4,0.4-0.4,1,0,1.4
	c0.2,0.2,0.5,0.3,0.7,0.3s0.5-0.1,0.7-0.3l7.2-7.2C28.5,487.9,28.6,487.8,28.6,487.7z"/>
<path class="st1" d="M28.6,527.7c0.1-0.2,0.1-0.5,0-0.8c-0.1-0.2-0.3-0.4-0.5-0.5c0-0.1-0.1-0.2-0.2-0.3l-7.2-7.2
	c-0.4-0.4-1-0.4-1.4,0s-0.4,1,0,1.4l5.9,5.9h-23c-0.6,0-1,0.4-1,1s0.4,1,1,1h23l-5.5,5.5c-0.4,0.4-0.4,1,0,1.4
	c0.2,0.2,0.5,0.3,0.7,0.3s0.5-0.1,0.7-0.3l7.2-7.2C28.5,527.9,28.6,527.8,28.6,527.7z"/>
</svg>
