<?xml version="1.0" encoding="utf-8"?>
<!-- Generator: Adobe Illustrator 28.0.0, SVG Export Plug-In . SVG Version: 6.00 Build 0)  -->
<svg version="1.1" id="Layer_1" xmlns="http://www.w3.org/2000/svg" xmlns:xlink="http://www.w3.org/1999/xlink" x="0px" y="0px"
	 width="60px" height="60px" viewBox="0 0 60 60" style="enable-background:new 0 0 60 60;" xml:space="preserve">
<style type="text/css">
	.st0{display:none;}
	.st1{fill:none;stroke:#707071;stroke-width:3;}
</style>
<g id="Group_5" transform="translate(-407.5 -2405.5)" class="st0">
	<path id="Path_19" class="st1" d="M442.24,2408.72h-31.63v53.44h19.26"/>
	<line id="Line_3" class="st1" x1="424.55" y1="2409.09" x2="424.55" y2="2429.62"/>
	<line id="Line_6" class="st1" x1="463.6" y1="2407.22" x2="463.6" y2="2463.41"/>
	<line id="Line_4" class="st1" x1="415.89" y1="2430.37" x2="435.19" y2="2430.37"/>
	<line id="Line_5" class="st1" x1="443.93" y1="2430.37" x2="463.23" y2="2430.37"/>
	<line id="Line_7" class="st1" x1="451.9" y1="2408.72" x2="464.22" y2="2408.72"/>
	<line id="Line_8" class="st1" x1="429.63" y1="2442.94" x2="450.53" y2="2442.94"/>
	<path id="Path_20" class="st1" d="M440.47,2442.86v19.05h23.01"/>
</g>
<g id="Group_6" transform="translate(-443.063 -2492.845)">
	<path id="Path_21" class="st1" d="M450.24,2500.2l10.55-4.76l35.45,17.09v28.67l-10.45,9.04l-35.55-18.97V2500.2z"/>
	<path id="Path_22" class="st1" d="M450.24,2518.18l11.07-6.78l17.11,9.21l-0.28,12.09l-10.53,7.89l-17.37-9.23L450.24,2518.18z"/>
	<path id="Path_23" class="st1" d="M450.2,2518.18l17.37,9.32v13.28"/>
	<line id="Line_9" class="st1" x1="478.45" y1="2520.59" x2="467.71" y2="2527.65"/>
	<path id="Path_24" class="st1" d="M478.42,2532.31l17.68,8.76"/>
</g>
</svg>
