<?xml version="1.0" encoding="utf-8"?>
<!-- Generator: Adobe Illustrator 28.1.0, SVG Export Plug-In . SVG Version: 6.00 Build 0)  -->
<svg version="1.1" id="Layer_1" xmlns="http://www.w3.org/2000/svg" xmlns:xlink="http://www.w3.org/1999/xlink" x="0px" y="0px"
	 width="482px" height="489px" viewBox="0 0 482 489" style="enable-background:new 0 0 482 489;" xml:space="preserve">
<style type="text/css">
	.st0{clip-path:url(#SVGID_00000176724797325066485170000016652356149019651262_);}
	.st1{fill:none;stroke:#BCBCBC;stroke-miterlimit:10;}
	.st2{fill:#C4462D;}
</style>
<g>
	<defs>
		<rect id="SVGID_1_" x="0.4" y="7" width="482" height="482"/>
	</defs>
	<clipPath id="SVGID_00000150098653332107395190000009785906893580948114_">
		<use xlink:href="#SVGID_1_"  style="overflow:visible;"/>
	</clipPath>
	<g style="clip-path:url(#SVGID_00000150098653332107395190000009785906893580948114_);">
		<line class="st1" x1="33.3" y1="-49.3" x2="377.1" y2="563.5"/>
		<line class="st1" x1="-7.5" y1="-50.9" x2="336.4" y2="561.9"/>
		<line class="st1" x1="90.6" y1="-49.4" x2="434.5" y2="563.4"/>
		<line class="st1" x1="110.4" y1="-51.1" x2="454.3" y2="561.7"/>
		<line class="st1" x1="49.9" y1="-51.1" x2="393.7" y2="561.7"/>
		<line class="st1" x1="-1.3" y1="174.9" x2="516.9" y2="174.9"/>
		<line class="st1" x1="429.6" y1="-52.5" x2="79.4" y2="565.5"/>
		<g>
			<path class="st2" d="M209.5,335.5l-90.1-161h25.9c9,0,17.4,4.9,21.8,12.8l62.6,113.3"/>
			<path class="st2" d="M246.1,274l-6.4,11.1l-62.2-110.6h27.1c8.3,0,16,4.5,20,11.8l22,39.9C254.8,241.1,254.6,259.2,246.1,274z"/>
			<path class="st2" d="M269.3,232.8l-20.4-38.3c-4.8-9.1,1.7-20.1,12-20.1h41.9L269.3,232.8z"/>
		</g>
	</g>
</g>
</svg>
