<?xml version="1.0" encoding="utf-8"?>
<!-- Generator: Adobe Illustrator 28.1.0, SVG Export Plug-In . SVG Version: 6.00 Build 0)  -->
<svg version="1.1" id="Layer_1" xmlns="http://www.w3.org/2000/svg" xmlns:xlink="http://www.w3.org/1999/xlink" x="0px" y="0px"
	 viewBox="0 0 92 18" style="enable-background:new 0 0 92 18;" xml:space="preserve">
<style type="text/css">
	.st0{fill:#C4462D;}
	.st1{fill:#1B2835;}
</style>
<g>
	<path class="st0" d="M8.45,16.88L1.06,3.68h2.12c0.74,0,1.43,0.4,1.78,1.05l5.14,9.29"/>
	<path class="st0" d="M11.44,11.83l-0.53,0.91l-5.1-9.07h2.22c0.68,0,1.31,0.37,1.64,0.97l1.81,3.27
		C12.16,9.13,12.14,10.62,11.44,11.83z"/>
	<path class="st0" d="M13.34,8.46l-1.67-3.14c-0.4-0.75,0.14-1.64,0.99-1.64h3.43L13.34,8.46z"/>
</g>
<g>
	<path class="st1" d="M21.6,7.69c-0.57-1.26-1.22-1.26-1.22-1.26V6.11h4.89v0.33c0,0-1.93,0-1.42,1.44l2.09,5.85l3.11-6.05
		c0.49-1.24-1.3-1.24-1.3-1.24V6.11H31v0.33c0,0-0.69,0-1.4,1.14l-4.45,8.69h-0.51L21.6,7.69z"/>
	<path class="st1" d="M30.7,11.19c0-3.72,2.42-5.28,4.24-5.28c1.73,0,3.88,1.4,3.94,4.33v0.53h-6.09c0,0.16-0.02,0.33-0.02,0.51
		c0,2.74,0.91,4.67,2.76,4.67c0.81,0,2.11-0.39,2.88-2.03h0.45c-0.71,1.73-1.89,2.56-3.64,2.56C32.42,16.47,30.7,14.33,30.7,11.19z
		 M36.81,10.23c-0.02-2.48-0.83-3.8-1.81-3.8c-1,0-1.97,1.42-2.19,3.8H36.81z"/>
	<path class="st1" d="M40.89,3.08c0-1.52-1.6-1.52-1.6-1.52V1.23h1.62c1.24,0,2.05,0.81,2.05,2.05v11.13c0,1.52,1.6,1.52,1.6,1.52
		v0.33h-1.62c-1.22,0-2.05-0.83-2.05-2.05V3.08z"/>
	<path class="st1" d="M45.28,7.69c-0.57-1.26-1.22-1.26-1.22-1.26V6.11h4.89v0.33c0,0-1.93,0-1.42,1.44l2.09,5.85l3.11-6.05
		c0.49-1.24-1.3-1.24-1.3-1.24V6.11h3.25v0.33c0,0-0.69,0-1.4,1.14l-4.45,8.69h-0.51L45.28,7.69z"/>
	<path class="st1" d="M54.99,13.26c0-1.87,1.56-3.11,3.66-3.11c0.83,0,1.52,0.26,2.01,0.73v-1.4c0-1.69-1-2.9-2.54-2.9
		c-1.12,0-1.97,0.65-2.34,1.52c0.1-0.02,0.2-0.04,0.33-0.04c0.63,0,1.04,0.41,1.04,1.04c0,0.63-0.41,1.04-1.04,1.04
		c-0.63,0-1.04-0.41-1.04-1.04c0-1.87,1.42-3.19,3.76-3.19c2.38,0,3.9,1.36,3.9,3.57v4.93c0,1.52,1.6,1.52,1.6,1.52v0.33h-1.62
		c-0.83,0-1.48-0.39-1.81-1.02c-0.51,0.71-1.28,1.22-2.25,1.22C56.55,16.47,54.99,15.13,54.99,13.26z M60.66,13.26
		c0-1.58-0.16-2.66-1.3-2.66c-1.4,0-2.29,1.08-2.29,2.66c0,1.6,0.77,2.76,2.17,2.76C60.37,16.02,60.66,14.86,60.66,13.26z"/>
	<path class="st1" d="M65.14,16.26v-0.33c0,0,1.6,0,1.6-1.52V7.96c0-1.52-1.6-1.52-1.6-1.52V6.11h1.62c0.89,0,1.56,0.43,1.87,1.12
		c0.51-0.81,1.42-1.32,2.86-1.32c2.38,0,3.9,1.36,3.9,3.57v4.93c0,1.52,1.6,1.52,1.6,1.52v0.33h-1.62c-1.22,0-2.05-0.83-2.05-2.05
		V9.48c0-1.69-1-2.9-2.54-2.9c-1.1,0-1.73,0.63-1.97,1.48v6.36c0,1.52,2.01,1.52,2.01,1.52v0.33H65.14z"/>
	<path class="st1" d="M80.38,16.26c-1.24,0-2.05-0.67-2.05-1.69V6.43h-0.91V6.11c0,0,2.29-0.47,2.29-2.94h0.69v2.94h1.2v0.33h-1.2
		v7.17c0,2.33,1.6,2.33,1.6,2.33v0.33H80.38z"/>
	<path class="st1" d="M82.61,11.19c0-3.72,2.42-5.28,4.25-5.28c1.73,0,3.88,1.4,3.94,4.33v0.53H84.7c0,0.16-0.02,0.33-0.02,0.51
		c0,2.74,0.91,4.67,2.76,4.67c0.81,0,2.11-0.39,2.88-2.03h0.45c-0.71,1.73-1.89,2.56-3.63,2.56C84.34,16.47,82.61,14.33,82.61,11.19
		z M88.72,10.23c-0.02-2.48-0.83-3.8-1.81-3.8c-1,0-1.97,1.42-2.19,3.8H88.72z"/>
</g>
</svg>
